PathFileType  4	(X/Y/Z) C:\Users\antoi\Documents\MyRepositories\mobilecap\ResultsAnalysis
DataRate	CameraRate	NumFrames	NumMarkers	Units	OrigDataRate	OrigDataStartFrame	OrigNumFrames
100.0	100.0	4	51	mm	100.0	108	861
Frame#	Time	r_knee			r_shank_antsup			r_ankle			r_calc			r_5meta			r_toe			L_knee			L_shank_antsup			L_ankle			L_calc			L_5meta			L_toe			r_sh2			r_sh3			r_sh4			L_sh2			L_sh3			r_thigh1			r_thigh2			r_thigh3			r_thigh4			r_thigh5			L_thigh1			L_thigh2			L_thigh3			L_thigh4			r.ASIS			r.PSIS			L.ASIS			L.PSIS			C7			R_Shoulder			L_Shoulder			R_Sternum			L_Sternum			R_humerus			R_elbow_med			R_elbow_lat			R_forearm			R_wrist_radius			R_wrist_ulna			L_humerus			L_elbow_med			L_elbow_lat			L_forearm			L_wrist_radius			L_wrist_ulna			R_HJC			L_HJC			R_HJC_reg			L_HJC_reg			
		X1	Y1	Z1	X2	Y2	Z2	X3	Y3	Z3	X4	Y4	Z4	X5	Y5	Z5	X6	Y6	Z6	X7	Y7	Z7	X8	Y8	Z8	X9	Y9	Z9	X10	Y10	Z10	X11	Y11	Z11	X12	Y12	Z12	X13	Y13	Z13	X14	Y14	Z14	X15	Y15	Z15	X16	Y16	Z16	X17	Y17	Z17	X18	Y18	Z18	X19	Y19	Z19	X20	Y20	Z20	X21	Y21	Z21	X22	Y22	Z22	X23	Y23	Z23	X24	Y24	Z24	X25	Y25	Z25	X26	Y26	Z26	X27	Y27	Z27	X28	Y28	Z28	X29	Y29	Z29	X30	Y30	Z30	X31	Y31	Z31	X32	Y32	Z32	X33	Y33	Z33	X34	Y34	Z34	X35	Y35	Z35	X36	Y36	Z36	X37	Y37	Z37	X38	Y38	Z38	X39	Y39	Z39	X40	Y40	Z40	X41	Y41	Z41	X42	Y42	Z42	X43	Y43	Z43	X44	Y44	Z44	X45	Y45	Z45	X46	Y46	Z46	X47	Y47	Z47	X48	Y48	Z48	X49	Y49	Z49	X50	Y50	Z50	X51	Y51	Z51	

108	1.07000000	-216.90505	612.70038	-391.76660	-196.16030	464.38799	-373.96207	-286.12733	107.06117	-329.37076	-343.05769	73.22731	-393.57816	-155.37004	43.65968	-288.09590	-112.34940	68.22106	-336.80428	-237.53726	612.04795	-874.05457	-198.23427	411.96566	-883.92309	-299.27014	116.79024	-924.91471	-354.05233	75.50785	-865.61839	-164.07398	36.63070	-978.32883	-117.57901	64.04035	-921.64684	-207.90522	352.04235	-363.09453	-262.81110	473.07007	-340.41042	-276.95727	363.13518	-320.27339	-269.70005	432.94481	-933.26827	-286.89988	314.39779	-933.24678	-224.53234	914.10531	-407.57393	-194.84379	807.32760	-392.95068	-251.60971	768.69776	-384.63579	-329.25180	883.97247	-435.06117	-301.01799	770.66189	-411.82916	-200.58817	913.58065	-839.62514	-187.97084	779.68314	-855.53759	-309.65395	909.66397	-854.36281	-294.59586	773.18569	-874.28959	-210.72795	1174.97545	-494.78693	-396.98958	1191.63733	-584.23757	-214.53568	1169.31545	-764.37204	-396.87239	1194.29457	-676.04048	-325.44588	1685.86135	-630.27835	-262.30759	1660.68790	-463.57191	-280.79046	1688.22458	-787.54200	-180.40899	1611.44513	-601.64327	-180.49105	1612.26665	-649.67071	-274.91132	1410.92431	-358.68410	-373.32485	1287.24651	-357.53639	-322.61152	1318.24608	-288.28137	-164.63991	1308.53775	-431.88246	-106.19942	1310.58232	-498.16626	-92.74586	1281.58787	-476.81611	-261.56203	1416.87112	-886.19261	-361.37940	1322.10080	-886.74935	-298.71990	1339.81514	-942.08707	-135.64962	1330.95950	-815.50966	-90.45026	1333.56764	-754.35696	-74.90736	1314.15155	-780.74860	-282.05788	1074.18023	-530.27818	-288.53206	1074.20086	-727.64831	-273.92282	1081.95320	-535.93598	-273.69499	1087.10321	-713.84448	
109	1.08000000	-216.48878	612.54994	-391.09259	-195.48006	464.13940	-373.54359	-286.21175	106.99102	-329.40763	-343.07762	73.25306	-393.55200	-155.36558	43.80049	-287.92693	-112.36833	68.19028	-336.78013	-236.70708	611.86390	-874.60879	-197.17336	411.76276	-884.04729	-299.10960	116.88612	-924.87102	-353.92355	75.67355	-865.53466	-164.03637	36.61500	-978.31283	-117.42022	63.92490	-921.59471	-207.47648	351.88398	-362.81123	-262.09020	472.77315	-340.02718	-276.71239	363.01038	-319.83433	-268.44837	432.80451	-933.59876	-285.87134	314.30083	-933.70699	-228.51895	913.48165	-407.53489	-197.55911	807.12609	-392.64390	-253.77124	767.82060	-384.31790	-332.83383	881.86184	-435.20931	-303.15903	769.03288	-411.64061	-204.15395	913.45363	-839.61642	-189.66137	779.88074	-855.82228	-313.26052	908.03954	-854.47189	-296.15697	771.98660	-874.72594	-215.89789	1172.64658	-494.87647	-402.05450	1192.01803	-584.42192	-219.66182	1167.22411	-764.40085	-401.82307	1194.77181	-676.25225	-321.70164	1685.37853	-630.21804	-258.72430	1659.26331	-463.58683	-276.21104	1686.81795	-787.96391	-177.62015	1608.98549	-601.22026	-177.54935	1610.06095	-648.84714	-270.42361	1409.38278	-359.56874	-367.00347	1286.00554	-356.69403	-317.56681	1316.34251	-289.01554	-159.38961	1306.85565	-432.21888	-100.94543	1308.90260	-498.32326	-87.50539	1279.88525	-476.98946	-255.28869	1415.51582	-885.73107	-354.96624	1320.16521	-886.64753	-291.58035	1338.13496	-942.32606	-129.51874	1329.03470	-814.67377	-84.64397	1331.79628	-753.31832	-69.11895	1312.08139	-779.61028	-288.74304	1072.90735	-530.46733	-295.08825	1073.15613	-727.84165	-280.44329	1080.53003	-536.16355	-279.99486	1085.86409	-714.02269	
110	1.09000000	-216.19466	612.57685	-390.23874	-194.83934	463.95780	-373.01664	-286.25964	106.95784	-329.43154	-343.06561	73.31770	-393.51712	-155.34797	43.93509	-287.86226	-112.36269	68.21180	-336.77988	-236.02696	611.76292	-875.24933	-196.27132	411.68016	-884.44049	-298.96867	117.02647	-924.92074	-353.82679	75.82436	-865.50298	-164.01227	36.62791	-978.30747	-117.32105	63.90726	-921.59949	-206.98673	351.73260	-362.47012	-261.36234	472.50213	-339.52744	-276.49478	363.00987	-319.38397	-267.43256	432.84497	-934.04094	-285.22299	314.35570	-934.15638	-232.92572	912.84606	-407.28501	-200.61088	806.93561	-392.04383	-256.09881	766.94260	-383.78274	-336.84751	879.55705	-435.14704	-305.48912	767.40875	-411.05607	-208.08937	913.33470	-839.71048	-191.59719	780.20825	-856.37712	-317.41339	906.06799	-854.20521	-297.95054	770.80353	-875.24395	-221.45117	1170.46372	-494.96711	-407.48751	1192.50348	-584.57510	-225.22874	1165.04529	-764.39147	-407.05959	1195.27899	-676.50673	-317.57530	1684.62435	-630.06263	-254.83807	1657.43948	-463.60724	-271.29083	1684.89692	-788.26651	-175.49017	1605.42477	-601.68637	-174.83927	1606.98724	-648.75730	-265.52628	1407.56827	-360.48512	-361.62493	1282.41344	-355.92901	-311.95426	1314.00327	-289.74956	-153.72954	1304.97823	-432.80243	-95.39078	1307.02382	-498.70356	-81.83604	1278.10143	-477.15214	-248.70723	1413.75016	-885.50430	-348.09066	1317.91169	-887.03128	-284.03703	1336.06105	-942.67552	-122.98649	1326.87660	-813.88113	-78.49596	1329.69986	-752.17044	-63.03592	1309.78623	-778.45547	-295.82456	1071.78992	-530.55734	-302.04785	1072.09342	-727.93558	-287.44315	1079.25200	-536.36888	-286.61586	1084.62000	-714.15953	
111	1.10000000	-215.87399	612.56484	-389.46139	-194.19201	463.87392	-372.46050	-286.18597	107.01288	-329.39391	-343.03104	73.40250	-393.48438	-155.32476	43.91171	-287.99208	-112.32214	68.31196	-336.82228	-235.47043	611.65150	-875.89207	-195.43139	411.62499	-884.96513	-298.78424	117.21100	-925.06686	-353.78924	75.99498	-865.55269	-163.98081	36.66462	-978.29369	-117.26417	63.91204	-921.60244	-206.41915	351.56678	-362.08848	-260.64732	472.42444	-338.84275	-275.80278	362.90002	-318.94892	-266.47409	432.95071	-934.63586	-284.66035	314.43326	-934.50528	-237.76391	912.16035	-406.97984	-203.81845	806.89315	-391.35226	-258.61134	765.93916	-383.06371	-341.22803	877.07622	-434.83527	-307.98036	765.59556	-410.28207	-212.44857	913.27181	-839.82019	-193.79001	780.56584	-857.00059	-321.83000	904.08710	-853.99714	-299.96950	769.54896	-875.86913	-227.62822	1168.05504	-495.06322	-413.32853	1192.98042	-584.74580	-231.24439	1162.66394	-764.12179	-412.58465	1195.78532	-676.62789	-313.05240	1683.48229	-629.90943	-250.66507	1655.12756	-463.75155	-266.15207	1682.40226	-788.28841	-173.06205	1601.51006	-602.01823	-171.98886	1603.38780	-648.72301	-260.33502	1405.37620	-361.27435	-356.03562	1278.50760	-356.28090	-305.91215	1311.22545	-290.23295	-147.71268	1302.81220	-433.53546	-89.38462	1304.97368	-499.26166	-75.73333	1276.19916	-477.47825	-241.78440	1411.58992	-885.56464	-340.68786	1315.27213	-887.89121	-276.18332	1333.51440	-942.88483	-116.06737	1324.40993	-813.02445	-71.92258	1327.21240	-751.07869	-56.46981	1307.25701	-777.39840	-303.54864	1070.55680	-530.55622	-309.53127	1070.93870	-727.94149	-295.14703	1077.92010	-536.63285	-293.70890	1083.34014	-714.17422	
